HIERARCHY
ROOT hip
{
	OFFSET 0.000000 0.000000 0.000000 
	CHANNELS 6 Xposition Yposition Zposition Xrotation Zrotation Yrotation
	JOINT abdomen
	{
		OFFSET 0.000000 3.402643 0.000000 
		CHANNELS 3 Xrotation Zrotation Yrotation
		JOINT chest
		{
			OFFSET 0.000000 8.438565 -0.680529 
			CHANNELS 3 Xrotation Zrotation Yrotation
			JOINT neck
			{
				OFFSET 0.000000 10.207942 -0.272212 
				CHANNELS 3 Xrotation Zrotation Yrotation
				JOINT head
				{
					OFFSET 0.000000 3.130431 0.000000 
					CHANNELS 3 Xrotation Zrotation Yrotation
					End Site
					{
						OFFSET 0.000000 3.130435 0.000000 
					}
				}
			}
			JOINT lCollar
			{
				OFFSET 3.470700 6.669187 -0.816635 
				CHANNELS 3 Yrotation Zrotation Xrotation
				JOINT lShldr
				{
					OFFSET 3.198488 0.000000 0.000000 
					CHANNELS 3 Zrotation Yrotation Xrotation
					JOINT lForeArm
					{
						OFFSET 10.139888 0.000000 0.000000 
						CHANNELS 3 Yrotation Zrotation Xrotation
						JOINT lHand
						{
							OFFSET 8.370511 0.000000 0.000000 
							CHANNELS 3 Zrotation Yrotation Xrotation
							End Site
							{
								OFFSET 4.083176 0.000000 0.000000 
							}
						}
					}
				}
			}
			JOINT rCollar
			{
				OFFSET -3.470700 6.669187 -0.816635 
				CHANNELS 3 Yrotation Zrotation Xrotation
				JOINT rShldr
				{
					OFFSET -3.198488 0.000000 0.000000 
					CHANNELS 3 Zrotation Yrotation Xrotation
					JOINT rForeArm
					{
						OFFSET -10.139888 0.000000 0.000000 
						CHANNELS 3 Yrotation Zrotation Xrotation
						JOINT rHand
						{
							OFFSET -8.370511 0.000000 0.000000 
							CHANNELS 3 Zrotation Yrotation Xrotation
							End Site
							{
								OFFSET -4.083176 0.000000 0.000000 
							}
						}
					}
				}
			}
		}
	}
	JOINT lThigh
	{
		OFFSET 5.308129 -1.633274 1.361059 
		CHANNELS 3 Xrotation Zrotation Yrotation
		JOINT lShin
		{
			OFFSET -2.041588 -20.007561 0.000000 
			CHANNELS 3 Xrotation Zrotation Yrotation
			JOINT lFoot
			{
				OFFSET 0.000000 -19.190928 -1.224953 
				CHANNELS 3 Xrotation Yrotation Zrotation
				End Site
				{
					OFFSET 0.000000 -2.449906 4.627600 
				}
			}
		}
	}
	JOINT rThigh
	{
		OFFSET -5.308129 -1.633274 1.361059 
		CHANNELS 3 Xrotation Zrotation Yrotation
		JOINT rShin
		{
			OFFSET 2.041588 -20.007561 0.000000 
			CHANNELS 3 Xrotation Zrotation Yrotation
			JOINT rFoot
			{
				OFFSET 0.000000 -19.190928 -1.224953 
				CHANNELS 3 Xrotation Yrotation Zrotation
				End Site
				{
					OFFSET 0.000000 -2.449906 4.627600 
				}
			}
		}
	}
}
MOTION
Frames: 8
Frame Time: 0.016667
6.031820 39.285492 24.177399 -4.334361 -6.044415 98.646317 0.000000 0.000000 0.000000 38.328796 15.381318 -9.746527 -8.457032 0.000000 0.000000 -17.112045 9.849939 -53.356667 -2.812533 -0.096698 -0.019508 -49.276566 -38.527031 -17.047237 -88.217194 -44.213364 -16.022270 39.544327 -13.758904 -8.711412 2.792995 0.077173 -0.019521 43.388504 27.517212 -6.091564 78.359657 33.103851 -2.840966 -59.012962 34.694920 -3.323870 -10.585513 39.916008 11.088614 61.194084 -1.518898 -4.957269 -28.683239 5.886569 -20.394875 -50.287270 -41.237186 10.349680 46.094780 4.182979 11.159596 -17.369350 22.141521 34.668858 
6.006348 39.224308 23.991531 -4.563891 -6.422397 97.706314 0.000000 0.000000 0.000000 37.076763 17.336914 -14.099195 -8.457032 0.000000 0.000000 -16.340166 10.241331 -51.433300 -2.812533 -0.096698 -0.019508 -49.717899 -42.258575 -12.605797 -89.044571 -44.463921 -16.455114 40.291698 -13.160196 -7.829700 2.792995 0.077173 -0.019521 43.553623 22.248241 -7.866332 79.641724 33.421822 -3.533382 -63.182316 36.107971 -6.024797 -10.156383 39.966827 11.869664 61.839249 -1.452919 -4.692869 -28.744738 5.868374 -20.028139 -50.999695 -40.621761 10.512141 45.735401 4.287419 11.151231 -17.677610 22.447750 34.950375 
5.980806 39.163094 23.805845 -4.777328 -6.800964 96.762909 0.000000 0.000000 0.000000 35.648155 19.197237 -18.544088 -8.457032 0.000000 0.000000 -15.558104 10.612074 -49.503323 -2.812533 -0.096698 -0.019508 -50.603878 -45.941898 -7.840727 -89.875557 -44.720165 -16.892866 41.029602 -12.580338 -6.931760 2.792995 0.077173 -0.019521 43.881893 16.990595 -9.597927 80.925735 33.708061 -4.238815 -67.503906 37.347588 -8.898101 -9.717078 39.996815 12.650749 62.474163 -1.394447 -4.441089 -28.787169 5.837146 -19.646950 -51.696510 -40.008350 10.629972 45.386032 4.365360 11.171253 -18.014236 22.739735 35.199055 
5.916854 39.084854 23.709728 -4.931989 -7.228361 96.183899 0.000000 0.000000 0.000000 34.232914 20.333357 -22.494463 -8.457032 0.000000 0.000000 -14.784961 11.013110 -47.911507 -2.812533 -0.096698 -0.019508 -52.130283 -48.533310 -2.951576 -90.124374 -44.625374 -17.084047 41.602272 -11.998315 -6.660625 2.792995 0.077173 -0.019521 44.902512 12.352770 -10.801085 82.067520 33.919888 -4.979574 -71.431503 38.245338 -11.155189 -9.639135 40.029995 13.389878 62.623875 -1.384772 -4.358469 -28.433296 5.848550 -19.518860 -52.418255 -39.841949 10.526307 45.290588 4.358333 11.092556 -18.462254 23.088793 35.671013 
5.852808 39.006626 23.613768 -5.081913 -7.650825 95.601540 0.000000 0.000000 0.000000 32.727589 21.376204 -26.497314 -8.457032 0.000000 0.000000 -14.004169 11.391488 -46.305611 -2.812533 -0.096698 -0.019508 -54.105522 -51.015297 2.316264 -90.372986 -44.539696 -17.279758 42.166733 -11.424301 -6.374510 2.792995 0.077173 -0.019521 46.008240 7.745228 -12.071700 83.224907 34.109188 -5.724797 -75.456108 39.018448 -13.525271 -9.551364 40.084702 14.132603 62.802147 -1.375068 -4.297147 -28.088480 5.877660 -19.401508 -53.111076 -39.665939 10.416286 45.205406 4.358213 10.989223 -18.943054 23.451138 36.132885 
5.741556 38.931217 23.597702 -5.229335 -8.074064 95.458565 0.000000 0.000000 0.000000 31.435566 22.002235 -29.445404 -8.457032 0.000000 0.000000 -13.393700 11.609595 -45.109192 -2.812533 -0.096698 -0.019508 -56.373402 -52.514271 6.864315 -90.806549 -44.706104 -17.624315 42.504456 -11.222641 -6.113601 2.792995 0.077173 -0.019521 47.452251 4.106145 -12.598141 84.338058 34.149555 -6.410210 -78.401436 39.704308 -14.753176 -9.892792 40.083916 14.205703 62.903194 -1.384636 -4.213165 -28.301140 5.883519 -19.273792 -53.683880 -39.595863 9.858185 45.114655 4.130867 11.143349 -18.779221 23.777132 36.163303 
5.630242 38.855865 23.581814 -5.375512 -8.493587 95.315529 0.000000 0.000000 0.000000 30.104210 22.567833 -32.411751 -8.457032 0.000000 0.000000 -12.784554 11.807876 -43.909626 -2.812533 -0.096698 -0.019508 -58.912853 -53.891735 11.677378 -91.240517 -44.861115 -17.972139 42.834690 -11.011912 -5.848845 2.792995 0.077173 -0.019521 48.927139 0.473122 -13.218020 85.451202 34.178944 -7.096022 -81.393654 40.334930 -16.023365 -10.254189 40.076935 14.263324 62.984371 -1.394620 -4.137472 -28.475266 5.895257 -19.142424 -54.249786 -39.527241 9.277759 45.033623 3.896716 11.287084 -18.636517 24.127836 36.196873 
5.488824 38.804649 23.655510 -5.321475 -8.736800 95.608658 0.000000 0.000000 0.000000 29.850416 22.694166 -33.525547 -8.457032 0.000000 0.000000 -12.850319 11.559589 -42.509838 -2.812533 -0.096698 -0.019508 -60.659817 -54.902473 14.281343 -91.447746 -45.208702 -18.115454 42.333920 -11.327735 -5.604692 2.792995 0.077173 -0.019521 50.500069 -1.936734 -13.685331 86.223396 33.966869 -7.558068 -83.325333 41.096462 -16.875097 -10.937706 40.200672 14.028019 62.999908 -1.462865 -4.265532 -28.505447 5.943608 -18.924572 -54.365166 -39.804642 8.651049 44.966515 3.694600 11.232071 -18.767963 24.503199 36.262032 
